<?xml version="1.0" encoding="UTF-8"?>
<svg xmlns="http://www.w3.org/2000/svg" xmlns:xlink="http://www.w3.org/1999/xlink" width="35pt" height="28pt" viewBox="0 0 35 28" version="1.1">
<g id="surface1">
<path style=" stroke:none;fill-rule:nonzero;fill:rgb(0%,0%,0%);fill-opacity:1;" d="M 9.625 14 C 12.039062 14 14 12.039062 14 9.625 C 14 7.210938 12.039062 5.25 9.625 5.25 C 7.210938 5.25 5.25 7.210938 5.25 9.625 C 5.25 12.039062 7.210938 14 9.625 14 Z M 28.875 7 L 16.625 7 C 16.140625 7 15.75 7.390625 15.75 7.875 L 15.75 15.75 L 3.5 15.75 L 3.5 4.375 C 3.5 3.890625 3.109375 3.5 2.625 3.5 L 0.875 3.5 C 0.390625 3.5 0 3.890625 0 4.375 L 0 23.625 C 0 24.109375 0.390625 24.5 0.875 24.5 L 2.625 24.5 C 3.109375 24.5 3.5 24.109375 3.5 23.625 L 3.5 21 L 31.5 21 L 31.5 23.625 C 31.5 24.109375 31.890625 24.5 32.375 24.5 L 34.125 24.5 C 34.609375 24.5 35 24.109375 35 23.625 L 35 13.125 C 35 9.742188 32.257812 7 28.875 7 Z M 28.875 7 "/>
</g>
</svg>
