<?xml version="1.0" encoding="UTF-8"?>
<svg xmlns="http://www.w3.org/2000/svg" xmlns:xlink="http://www.w3.org/1999/xlink" width="24pt" height="27pt" viewBox="0 0 24 27" version="1.1">
<g id="surface1">
<path style=" stroke:none;fill-rule:nonzero;fill:rgb(0%,0%,0%);fill-opacity:1;" d="M 24 18.984375 L 24 1.265625 C 24 0.5625 23.425781 0 22.714844 0 L 5.144531 0 C 2.304688 0 0 2.265625 0 5.0625 L 0 21.9375 C 0 24.734375 2.304688 27 5.144531 27 L 22.714844 27 C 23.425781 27 24 26.4375 24 25.734375 L 24 24.890625 C 24 24.496094 23.8125 24.136719 23.523438 23.90625 C 23.296875 23.09375 23.296875 20.777344 23.523438 19.964844 C 23.8125 19.738281 24 19.378906 24 18.984375 Z M 6.855469 7.066406 C 6.855469 6.890625 7 6.75 7.179688 6.75 L 18.535156 6.75 C 18.710938 6.75 18.855469 6.890625 18.855469 7.066406 L 18.855469 8.121094 C 18.855469 8.296875 18.710938 8.4375 18.535156 8.4375 L 7.179688 8.4375 C 7 8.4375 6.855469 8.296875 6.855469 8.121094 Z M 6.855469 10.441406 C 6.855469 10.265625 7 10.125 7.179688 10.125 L 18.535156 10.125 C 18.710938 10.125 18.855469 10.265625 18.855469 10.441406 L 18.855469 11.496094 C 18.855469 11.671875 18.710938 11.8125 18.535156 11.8125 L 7.179688 11.8125 C 7 11.8125 6.855469 11.671875 6.855469 11.496094 Z M 20.433594 23.625 L 5.144531 23.625 C 4.195312 23.625 3.429688 22.871094 3.429688 21.9375 C 3.429688 21.007812 4.199219 20.25 5.144531 20.25 L 20.433594 20.25 C 20.332031 21.152344 20.332031 22.722656 20.433594 23.625 Z M 20.433594 23.625 "/>
</g>
</svg>
