<?xml version="1.0" encoding="UTF-8"?>
<svg xmlns="http://www.w3.org/2000/svg" xmlns:xlink="http://www.w3.org/1999/xlink" width="35pt" height="28pt" viewBox="0 0 35 28" version="1.1">
<g id="surface1">
<path style=" stroke:none;fill-rule:nonzero;fill:rgb(0%,0%,0%);fill-opacity:1;" d="M 5.6875 5.25 L 3.0625 5.25 C 2.335938 5.25 1.75 5.835938 1.75 6.5625 L 1.75 12.25 L 0.4375 12.25 C 0.195312 12.25 0 12.445312 0 12.6875 L 0 15.3125 C 0 15.554688 0.195312 15.75 0.4375 15.75 L 1.75 15.75 L 1.75 21.4375 C 1.75 22.164062 2.335938 22.75 3.0625 22.75 L 5.6875 22.75 C 6.414062 22.75 7 22.164062 7 21.4375 L 7 6.5625 C 7 5.835938 6.414062 5.25 5.6875 5.25 Z M 34.5625 12.25 L 33.25 12.25 L 33.25 6.5625 C 33.25 5.835938 32.664062 5.25 31.9375 5.25 L 29.3125 5.25 C 28.585938 5.25 28 5.835938 28 6.5625 L 28 21.4375 C 28 22.164062 28.585938 22.75 29.3125 22.75 L 31.9375 22.75 C 32.664062 22.75 33.25 22.164062 33.25 21.4375 L 33.25 15.75 L 34.5625 15.75 C 34.804688 15.75 35 15.554688 35 15.3125 L 35 12.6875 C 35 12.445312 34.804688 12.25 34.5625 12.25 Z M 24.9375 1.75 L 22.3125 1.75 C 21.585938 1.75 21 2.335938 21 3.0625 L 21 12.25 L 14 12.25 L 14 3.0625 C 14 2.335938 13.414062 1.75 12.6875 1.75 L 10.0625 1.75 C 9.335938 1.75 8.75 2.335938 8.75 3.0625 L 8.75 24.9375 C 8.75 25.664062 9.335938 26.25 10.0625 26.25 L 12.6875 26.25 C 13.414062 26.25 14 25.664062 14 24.9375 L 14 15.75 L 21 15.75 L 21 24.9375 C 21 25.664062 21.585938 26.25 22.3125 26.25 L 24.9375 26.25 C 25.664062 26.25 26.25 25.664062 26.25 24.9375 L 26.25 3.0625 C 26.25 2.335938 25.664062 1.75 24.9375 1.75 Z M 24.9375 1.75 "/>
</g>
</svg>
