<?xml version="1.0" encoding="UTF-8"?>
<svg xmlns="http://www.w3.org/2000/svg" xmlns:xlink="http://www.w3.org/1999/xlink" width="32pt" height="28pt" viewBox="0 0 32 28" version="1.1">
<g id="surface1">
<path style=" stroke:none;fill-rule:nonzero;fill:rgb(0%,0%,0%);fill-opacity:1;" d="M 15.574219 8.109375 L 5.332031 16.414062 L 5.332031 25.375 C 5.332031 25.859375 5.730469 26.25 6.222656 26.25 L 12.449219 26.234375 C 12.9375 26.230469 13.332031 25.839844 13.332031 25.359375 L 13.332031 20.125 C 13.332031 19.640625 13.730469 19.25 14.222656 19.25 L 17.777344 19.25 C 18.269531 19.25 18.664062 19.640625 18.664062 20.125 L 18.664062 25.355469 C 18.664062 25.585938 18.757812 25.8125 18.925781 25.976562 C 19.089844 26.140625 19.316406 26.234375 19.554688 26.234375 L 25.777344 26.25 C 26.269531 26.25 26.667969 25.859375 26.667969 25.375 L 26.667969 16.40625 L 16.425781 8.109375 C 16.179688 7.910156 15.824219 7.910156 15.574219 8.109375 Z M 31.753906 13.753906 L 27.109375 9.984375 L 27.109375 2.410156 C 27.109375 2.046875 26.8125 1.753906 26.445312 1.753906 L 23.332031 1.753906 C 22.964844 1.753906 22.667969 2.046875 22.667969 2.410156 L 22.667969 6.378906 L 17.691406 2.351562 C 16.707031 1.554688 15.289062 1.554688 14.304688 2.351562 L 0.242188 13.753906 C -0.0429688 13.984375 -0.0820312 14.398438 0.152344 14.675781 L 1.570312 16.371094 C 1.679688 16.507812 1.84375 16.589844 2.019531 16.609375 C 2.195312 16.625 2.371094 16.570312 2.507812 16.460938 L 15.574219 5.867188 C 15.824219 5.667969 16.179688 5.667969 16.425781 5.867188 L 29.496094 16.460938 C 29.777344 16.691406 30.199219 16.652344 30.433594 16.375 L 31.851562 14.679688 C 31.960938 14.542969 32.015625 14.371094 32 14.195312 C 31.980469 14.023438 31.894531 13.863281 31.753906 13.753906 Z M 31.753906 13.753906 "/>
</g>
</svg>
