<?xml version="1.0" encoding="UTF-8"?>
<svg xmlns="http://www.w3.org/2000/svg" xmlns:xlink="http://www.w3.org/1999/xlink" width="24pt" height="27pt" viewBox="0 0 24 27" version="1.1">
<g id="surface1">
<path style=" stroke:none;fill-rule:nonzero;fill:rgb(0%,0%,0%);fill-opacity:1;" d="M 12 13.5 C 15.789062 13.5 18.855469 10.476562 18.855469 6.75 C 18.855469 3.023438 15.789062 0 12 0 C 8.210938 0 5.144531 3.023438 5.144531 6.75 C 5.144531 10.476562 8.210938 13.5 12 13.5 Z M 16.800781 15.1875 L 15.90625 15.1875 C 14.714844 15.726562 13.394531 16.03125 12 16.03125 C 10.605469 16.03125 9.289062 15.726562 8.09375 15.1875 L 7.199219 15.1875 C 3.226562 15.1875 0 18.363281 0 22.273438 L 0 24.46875 C 0 25.867188 1.152344 27 2.570312 27 L 21.429688 27 C 22.847656 27 24 25.867188 24 24.46875 L 24 22.273438 C 24 18.363281 20.773438 15.1875 16.800781 15.1875 Z M 16.800781 15.1875 "/>
</g>
</svg>
